<?xml version="1.0" encoding="UTF-8"?>
<svg width="107px" height="40px" viewBox="0 0 107 40" version="1.1" xmlns="http://www.w3.org/2000/svg" xmlns:xlink="http://www.w3.org/1999/xlink">
    <title>白色</title>
    <defs>
        <polygon id="path-1" points="0 40 106.260935 40 106.260935 0 0 0"></polygon>
    </defs>
    <g id="调整" stroke="none" stroke-width="1" fill="none" fill-rule="evenodd">
        <g id="白色">
            <path d="M35.3543904,36.7814196 C35.3543904,35.7867899 34.8810209,35.1694718 34.1574023,35.1694718 C33.4393201,35.1694718 32.9656738,35.7867899 32.9656738,36.7814196 C32.9656738,37.7815856 33.4393201,38.4254789 34.1574023,38.4254789 C34.8810209,38.4254789 35.3543904,37.7815856 35.3543904,36.7814196 M32.5136198,36.7814196 C32.5136198,35.5418005 33.1946075,34.7810874 34.1574023,34.7810874 C35.1257336,34.7810874 35.8067213,35.5418005 35.8067213,36.7814196 C35.8067213,38.0262983 35.1257336,38.8138634 34.1574023,38.8138634 C33.1946075,38.8138634 32.5136198,38.0262983 32.5136198,36.7814196" id="Fill-1" fill="#FFFFFF"></path>
            <path d="M38.7104972,37.2655575 C38.7104972,36.6164046 38.4871,36.1643506 37.9124128,36.1643506 C37.6624405,36.1643506 37.401672,36.3080224 37.1090688,36.5793102 L37.1090688,38.132848 C37.3803565,38.3667645 37.6463847,38.4464899 37.8432067,38.4464899 C38.3434282,38.4464899 38.7104972,37.9944358 38.7104972,37.2655575 L38.7104972,37.2655575 Z M36.6780534,35.8717473 L37.0293434,35.8717473 L37.0719743,36.2069815 L37.0877533,36.2069815 C37.3537814,35.9941036 37.6782195,35.7972816 38.0134537,35.7972816 C38.7636474,35.7972816 39.1625512,36.3772284 39.1625512,37.2602979 C39.1625512,38.244685 38.572085,38.8138357 37.9071531,38.8138357 C37.641125,38.8138357 37.3695604,38.6914793 37.0985494,38.4786015 L37.1090688,38.9838058 L37.1090688,39.978989 L36.6780534,39.978989 L36.6780534,35.8717473 Z" id="Fill-3" fill="#FFFFFF"></path>
            <path d="M41.8112335,37.0900233 C41.8112335,36.472982 41.5344093,36.1485439 41.0662994,36.1485439 C40.6408205,36.1485439 40.2629554,36.4940206 40.2045455,37.0900233 L41.8112335,37.0900233 Z M39.7787897,37.3134204 C39.7787897,36.3772008 40.4013675,35.7972539 41.0610398,35.7972539 C41.7791219,35.7972539 42.1940815,36.3132543 42.1940815,37.1431735 C42.1940815,37.2389547 42.1890987,37.3347359 42.172766,37.403942 L40.2098051,37.403942 C40.2363802,38.0422987 40.619505,38.4677777 41.1939154,38.4677777 C41.4759993,38.4677777 41.7099158,38.3775329 41.9227937,38.2338611 L42.0825213,38.5212047 C41.8322722,38.6806555 41.5399457,38.813808 41.1407651,38.813808 C40.3853117,38.813808 39.7787897,38.2551766 39.7787897,37.3134204 L39.7787897,37.3134204 Z" id="Fill-5" fill="#FFFFFF"></path>
            <path d="M42.9756118,35.8717473 L43.326625,35.8717473 L43.3692559,36.2922434 L43.3853117,36.2922434 C43.6618592,36.0206788 43.9597221,35.7972816 44.3533662,35.7972816 C44.9546285,35.7972816 45.2311759,36.185666 45.2311759,36.919804 L45.2311759,38.7446296 L44.7949009,38.7446296 L44.7949009,36.9729543 C44.7949009,36.4195825 44.6249308,36.1748699 44.2257502,36.1748699 C43.9226276,36.1748699 43.7044901,36.3345975 43.4063503,36.6432566 L43.4063503,38.7446296 L42.9756118,38.7446296 L42.9756118,35.8717473 Z" id="Fill-7" fill="#FFFFFF"></path>
            <path d="M47.2356882,38.2338058 L47.5017163,37.9306832 C47.7838002,38.2338058 48.1774444,38.4253682 48.5924039,38.4253682 C49.1244602,38.4253682 49.4488982,38.1540804 49.4488982,37.7551766 C49.4488982,37.3346805 49.156295,37.2018049 48.7839663,37.0368176 L48.2200753,36.7868453 C47.858266,36.6326542 47.4272506,36.3663492 47.4272506,35.7971985 C47.4272506,35.2067324 47.9379914,34.7812535 48.6297752,34.7812535 C49.0978851,34.7812535 49.4967888,34.9780755 49.762817,35.2598826 L49.5289005,35.5416897 C49.2894475,35.3130329 49.0021039,35.1693611 48.6297752,35.1693611 C48.1774444,35.1693611 47.8743218,35.3982948 47.8743218,35.7653637 C47.8743218,36.1642675 48.225335,36.313199 48.5231979,36.440815 L49.0870889,36.680268 C49.5338833,36.8773668 49.8956926,37.1431181 49.8956926,37.723065 C49.8956926,38.3351235 49.3904883,38.8137526 48.5871443,38.8137526 C48.0337726,38.8137526 47.5709224,38.5903554 47.2356882,38.2338058" id="Fill-9" fill="#FFFFFF"></path>
            <path d="M52.6614162,37.3135589 C52.6614162,36.6273115 52.2996069,36.1644613 51.7836065,36.1644613 C51.267606,36.1644613 50.9110564,36.6273115 50.9110564,37.3135589 C50.9110564,37.9945466 51.267606,38.4518603 51.7836065,38.4518603 C52.2996069,38.4518603 52.6614162,37.9945466 52.6614162,37.3135589 M50.464262,37.3135589 C50.464262,36.3504872 51.0813033,35.7971155 51.7836065,35.7971155 C52.4859096,35.7971155 53.1082106,36.3504872 53.1082106,37.3135589 C53.1082106,38.2605747 52.4859096,38.8136696 51.7836065,38.8136696 C51.0813033,38.8136696 50.464262,38.2605747 50.464262,37.3135589" id="Fill-11" fill="#FFFFFF"></path>
            <path d="M55.1877422,34.8716089 C55.0759052,34.8184586 54.9588085,34.7916067 54.8577677,34.7916067 C54.5759606,34.7916067 54.4428081,34.9939652 54.4428081,35.37709 L54.4428081,35.871775 L55.0601262,35.871775 L55.0601262,36.2280478 L54.4428081,36.2280478 L54.4428081,38.7446573 L54.0065331,38.7446573 L54.0065331,36.2280478 L53.6128889,36.2280478 L53.6128889,35.8983501 L54.0065331,35.871775 L54.0065331,35.3715535 C54.0065331,34.7916067 54.2725612,34.4405935 54.8206732,34.4405935 C54.9856605,34.4405935 55.1503709,34.4779648 55.2835234,34.5363747 L55.1877422,34.8716089 Z" id="Fill-13" fill="#FFFFFF"></path>
            <path d="M55.761765,37.8773945 L55.761765,36.2280755 L55.32549,36.2280755 L55.32549,35.8983778 L55.7778208,35.8718027 L55.8254346,35.0576625 L56.1927804,35.0576625 L56.1927804,35.8718027 L56.9853283,35.8718027 L56.9853283,36.2280755 L56.1927804,36.2280755 L56.1927804,37.8934503 C56.1927804,38.2444635 56.2990809,38.4573414 56.6448345,38.4573414 C56.751135,38.4573414 56.8842875,38.4199701 56.9800687,38.3828757 L57.0650537,38.7073137 C56.9056029,38.760464 56.7140405,38.813891 56.5543129,38.813891 C55.9533274,38.813891 55.761765,38.4412856 55.761765,37.8773945" id="Fill-15" fill="#FFFFFF"></path>
            <path d="M57.3359539,35.8717473 L57.7774887,35.8717473 L58.2298195,37.5794762 C58.2934891,37.850764 58.3466394,38.105996 58.4053261,38.372301 L58.4266416,38.372301 C58.4955708,38.105996 58.5542576,37.850764 58.6287233,37.5794762 L59.0915735,35.8717473 L59.5275717,35.8717473 L59.9959584,37.5794762 C60.0648876,37.850764 60.128834,38.105996 60.1980401,38.372301 L60.2193556,38.372301 C60.283302,38.105996 60.3364522,37.850764 60.4053815,37.5794762 L60.847193,35.8717473 L61.2621526,35.8717473 L60.4748644,38.7446296 L59.9480678,38.7446296 L59.5117927,37.1432012 C59.4320673,36.8666537 59.3789171,36.6058853 59.309711,36.313282 L59.2831359,36.313282 C59.2191895,36.6058853 59.1607795,36.8771731 59.0755177,37.1487377 L58.6552984,38.7446296 L58.1445576,38.7446296 L57.3359539,35.8717473 Z" id="Fill-17" fill="#FFFFFF"></path>
            <path d="M63.4954601,38.0636696 L63.4954601,37.2232311 C62.479515,37.3400509 62.1334847,37.5847636 62.1334847,37.9784077 C62.1334847,38.3241612 62.3729377,38.4625734 62.6655409,38.4625734 C62.9581442,38.4625734 63.2028568,38.3241612 63.4954601,38.0636696 M61.7132654,38.0049828 C61.7132654,37.3774222 62.2611007,37.0687631 63.4954601,36.930351 C63.5007197,36.5422434 63.3783634,36.1591186 62.8836784,36.1591186 C62.5379249,36.1591186 62.2292659,36.3241059 62.0111283,36.478297 L61.8356217,36.1748976 C62.0855941,36.0099103 62.4900343,35.7973093 62.9528845,35.7973093 C63.649928,35.7973093 63.9264755,36.2706788 63.9264755,36.9624626 L63.9264755,38.7446573 L63.5699258,38.7446573 L63.5328314,38.3933673 L63.5167756,38.3933673 C63.2402281,38.6275606 62.9102536,38.8138634 62.5484442,38.8138634 C62.0750747,38.8138634 61.7132654,38.5265198 61.7132654,38.0049828" id="Fill-19" fill="#FFFFFF"></path>
            <path d="M64.9258388,35.8717473 L65.276852,35.8717473 L65.3194829,36.3985439 L65.3355387,36.3985439 C65.5323608,36.0367346 65.824964,35.7972816 66.1494021,35.7972816 C66.2717584,35.7972816 66.3570203,35.8130606 66.4528015,35.861228 L66.3675396,36.2388163 C66.2717584,36.2069815 66.207812,36.1909257 66.0962518,36.1909257 C65.8515391,36.1909257 65.5536762,36.3716919 65.3568542,36.8719134 L65.3568542,38.7446296 L64.9258388,38.7446296 L64.9258388,35.8717473 Z" id="Fill-21" fill="#FFFFFF"></path>
            <path d="M68.7453217,37.0900233 C68.7453217,36.472982 68.4684974,36.1485439 68.0003876,36.1485439 C67.5749086,36.1485439 67.1970435,36.4940206 67.1386336,37.0900233 L68.7453217,37.0900233 Z M66.7128779,37.3134204 C66.7128779,36.3772008 67.3354557,35.7972539 67.9951279,35.7972539 C68.7132101,35.7972539 69.1281696,36.3132543 69.1281696,37.1431735 C69.1281696,37.2389547 69.12291,37.3347359 69.1068542,37.403942 L67.1438933,37.403942 C67.1704684,38.0422987 67.5535932,38.4677777 68.1280035,38.4677777 C68.4100875,38.4677777 68.644004,38.3775329 68.8568819,38.2338611 L69.0166095,38.5212047 C68.7663603,38.6806555 68.4740339,38.813808 68.0748533,38.813808 C67.3193998,38.813808 66.7128779,38.2551766 66.7128779,37.3134204 L66.7128779,37.3134204 Z" id="Fill-23" fill="#FFFFFF"></path>
            <path d="M72.3935611,34.8716089 C72.2820009,34.8184586 72.1649042,34.7916067 72.0638634,34.7916067 C71.7817794,34.7916067 71.6489038,34.9939652 71.6489038,35.37709 L71.6489038,35.871775 L72.2659451,35.871775 L72.2659451,36.2280478 L71.6489038,36.2280478 L71.6489038,38.7446573 L71.2126287,38.7446573 L71.2126287,36.2280478 L70.8187078,36.2280478 L70.8187078,35.8983501 L71.2126287,35.871775 L71.2126287,35.3715535 C71.2126287,34.7916067 71.47838,34.4405935 72.0264921,34.4405935 C72.1914793,34.4405935 72.3561898,34.4779648 72.4893423,34.5363747 L72.3935611,34.8716089 Z" id="Fill-25" fill="#FFFFFF"></path>
            <path d="M74.8032887,37.3135589 C74.8032887,36.6273115 74.4414793,36.1644613 73.9254789,36.1644613 C73.4092016,36.1644613 73.0529288,36.6273115 73.0529288,37.3135589 C73.0529288,37.9945466 73.4092016,38.4518603 73.9254789,38.4518603 C74.4414793,38.4518603 74.8032887,37.9945466 74.8032887,37.3135589 M72.6061344,37.3135589 C72.6061344,36.3504872 73.2231757,35.7971155 73.9254789,35.7971155 C74.6275053,35.7971155 75.250083,36.3504872 75.250083,37.3135589 C75.250083,38.2605747 74.6275053,38.8136696 73.9254789,38.8136696 C73.2231757,38.8136696 72.6061344,38.2605747 72.6061344,37.3135589" id="Fill-27" fill="#FFFFFF"></path>
            <path d="M76.0846252,35.8717473 L76.4356384,35.8717473 L76.4782693,36.3985439 L76.4943251,36.3985439 C76.6911472,36.0367346 76.9837504,35.7972816 77.3081885,35.7972816 C77.4305448,35.7972816 77.5158067,35.8130606 77.6115879,35.861228 L77.526326,36.2388163 C77.4305448,36.2069815 77.3665984,36.1909257 77.2550382,36.1909257 C77.0103255,36.1909257 76.7124626,36.3716919 76.5156406,36.8719134 L76.5156406,38.7446296 L76.0846252,38.7446296 L76.0846252,35.8717473 Z" id="Fill-29" fill="#FFFFFF"></path>
            <path d="M81.0953383,37.1699147 L80.8932566,36.5368176 C80.7440483,36.0952829 80.6216919,35.6747868 80.4888163,35.2174731 L80.4675008,35.2174731 C80.3398848,35.6803233 80.2122689,36.0952829 80.0685971,36.5368176 L79.8662385,37.1699147 L81.0953383,37.1699147 Z M81.2071753,37.5156683 L79.7546783,37.5156683 L79.3557746,38.744768 L78.9142398,38.744768 L80.2441036,34.8504042 L80.7282693,34.8504042 L82.0636696,38.744768 L81.5952829,38.744768 L81.2071753,37.5156683 Z" id="Fill-31" fill="#FFFFFF"></path>
            <mask id="mask-2" fill="white">
                <use xlink:href="#path-1"></use>
            </mask>
            <g id="Clip-34"></g>
            <polygon id="Fill-33" fill="#FFFFFF" mask="url(#mask-2)" points="82.6799358 38.7446019 83.1214705 38.7446019 83.1214705 34.8502381 82.6799358 34.8502381"></polygon>
            <path d="M85.2114107,38.2338058 L85.4774388,37.9306832 C85.7592459,38.2338058 86.15289,38.4253682 86.5678496,38.4253682 C87.0999059,38.4253682 87.4243439,38.1540804 87.4243439,37.7551766 C87.4243439,37.3346805 87.1320175,37.2018049 86.759412,37.0368176 L86.195521,36.7868453 C85.8337117,36.6326542 85.4029731,36.3663492 85.4029731,35.7971985 C85.4029731,35.2067324 85.9137139,34.7812535 86.6052209,34.7812535 C87.0733307,34.7812535 87.4725113,34.9780755 87.7385395,35.2598826 L87.5043461,35.5416897 C87.2648931,35.3130329 86.9775496,35.1693611 86.6052209,35.1693611 C86.15289,35.1693611 85.8497675,35.3982948 85.8497675,35.7653637 C85.8497675,36.1642675 86.2010575,36.313199 86.4989204,36.440815 L87.0625346,36.680268 C87.5096058,36.8773668 87.8714151,37.1431181 87.8714151,37.723065 C87.8714151,38.3351235 87.3662108,38.8137526 86.56259,38.8137526 C86.0092182,38.8137526 85.5466449,38.5903554 85.2114107,38.2338058" id="Fill-35" fill="#FFFFFF" mask="url(#mask-2)"></path>
            <path d="M88.3388329,39.9416178 L88.4293544,39.5903278 C88.4877644,39.6116432 88.5730262,39.6329587 88.6527516,39.6329587 C88.9824493,39.6329587 89.1953272,39.3564113 89.3229432,38.9838058 L89.3868896,38.7606854 L88.2269959,35.8717473 L88.6793268,35.8717473 L89.2911084,37.5155298 C89.3816299,37.7655022 89.4826708,38.0636419 89.578452,38.3244104 L89.6050271,38.3244104 C89.6847525,38.0636419 89.7700144,37.7655022 89.8497398,37.5155298 L90.3870557,35.8717473 L90.8125346,35.8717473 L89.7165873,39.0106577 C89.5253017,39.558493 89.227162,40.0000277 88.6688074,40.0000277 C88.5409146,40.0000277 88.4293544,39.978989 88.3388329,39.9416178" id="Fill-36" fill="#FFFFFF" mask="url(#mask-2)"></path>
            <path d="M91.1046119,38.4200808 L91.3224726,38.1274776 C91.5727217,38.3350958 91.8279537,38.4732311 92.189763,38.4732311 C92.5889436,38.4732311 92.7857657,38.2606301 92.7857657,37.9946019 C92.7857657,37.6859429 92.4397354,37.5475307 92.1152973,37.4304341 C91.7055974,37.2815026 91.2480069,37.0899402 91.2480069,36.6005149 C91.2480069,36.1537205 91.6045565,35.7971709 92.2215978,35.7971709 C92.5620917,35.7971709 92.8762872,35.9408427 93.0941479,36.1163492 L92.8868066,36.3984332 C92.6899845,36.2547614 92.4823663,36.1432012 92.2215978,36.1432012 C91.8387499,36.1432012 91.6629664,36.3452829 91.6629664,36.5794762 C91.6629664,36.866543 91.9824217,36.97838 92.3121194,37.0954767 C92.7326154,37.260464 93.2007253,37.4251744 93.2007253,37.9732865 C93.2007253,38.4306002 92.838916,38.8137249 92.1739841,38.8137249 C91.7642841,38.8137249 91.3758997,38.643478 91.1046119,38.4200808" id="Fill-37" fill="#FFFFFF" mask="url(#mask-2)"></path>
            <path d="M93.9182261,37.8773945 L93.9182261,36.2280755 L93.4822279,36.2280755 L93.4822279,35.8983778 L93.9342819,35.8718027 L93.9821725,35.0576625 L94.3492415,35.0576625 L94.3492415,35.8718027 L95.1417894,35.8718027 L95.1417894,36.2280755 L94.3492415,36.2280755 L94.3492415,37.8934503 C94.3492415,38.2444635 94.455542,38.4573414 94.8012955,38.4573414 C94.9078729,38.4573414 95.0407485,38.4199701 95.1365297,38.3828757 L95.2217916,38.7073137 C95.062064,38.760464 94.8705016,38.813891 94.7110508,38.813891 C94.1097885,38.813891 93.9182261,38.4412856 93.9182261,37.8773945" id="Fill-38" fill="#FFFFFF" mask="url(#mask-2)"></path>
            <path d="M97.5832964,37.0900233 C97.5832964,36.472982 97.3064722,36.1485439 96.8383623,36.1485439 C96.4128834,36.1485439 96.0350183,36.4940206 95.9766083,37.0900233 L97.5832964,37.0900233 Z M95.5508526,37.3134204 C95.5508526,36.3772008 96.1734304,35.7972539 96.8331026,35.7972539 C97.5514616,35.7972539 97.9661444,36.3132543 97.9661444,37.1431735 C97.9661444,37.2389547 97.9611616,37.3347359 97.9451057,37.403942 L95.981868,37.403942 C96.0084431,38.0422987 96.3915679,38.4677777 96.9659783,38.4677777 C97.2480622,38.4677777 97.4822556,38.3775329 97.6951334,38.2338611 L97.8545842,38.5212047 C97.6046119,38.6806555 97.3120086,38.813808 96.912828,38.813808 C96.1573746,38.813808 95.5508526,38.2551766 95.5508526,37.3134204 L95.5508526,37.3134204 Z" id="Fill-39" fill="#FFFFFF" mask="url(#mask-2)"></path>
            <path d="M98.7477024,35.8717473 L99.0987155,35.8717473 L99.1413465,36.2972262 L99.1574023,36.2972262 C99.4073746,36.0206788 99.7160337,35.7972816 100.050991,35.7972816 C100.498062,35.7972816 100.731979,36.0154191 100.843816,36.355913 C101.152475,36.0259384 101.455597,35.7972816 101.801351,35.7972816 C102.386557,35.7972816 102.673901,36.185666 102.673901,36.919804 L102.673901,38.7446296 L102.237626,38.7446296 L102.237626,36.9729543 C102.237626,36.4195825 102.062119,36.1748699 101.678995,36.1748699 C101.444801,36.1748699 101.200365,36.3293378 100.923541,36.6432566 L100.923541,38.7446296 L100.492526,38.7446296 L100.492526,36.9729543 C100.492526,36.4195825 100.317019,36.1748699 99.9286347,36.1748699 C99.7052375,36.1748699 99.4500055,36.3293378 99.1787177,36.6432566 L99.1787177,38.7446296 L98.7477024,38.7446296 L98.7477024,35.8717473 Z" id="Fill-40" fill="#FFFFFF" mask="url(#mask-2)"></path>
            <path d="M103.353449,38.4200808 L103.571587,38.1274776 C103.821559,38.3350958 104.077068,38.4732311 104.438877,38.4732311 C104.837781,38.4732311 105.034603,38.2606301 105.034603,37.9946019 C105.034603,37.6859429 104.68885,37.5475307 104.364411,37.4304341 C103.954712,37.2815026 103.497121,37.0899402 103.497121,36.6005149 C103.497121,36.1537205 103.853671,35.7971709 104.470712,35.7971709 C104.811206,35.7971709 105.125125,35.9408427 105.343262,36.1163492 L105.135644,36.3984332 C104.938822,36.2547614 104.73148,36.1432012 104.470712,36.1432012 C104.087864,36.1432012 103.912081,36.3452829 103.912081,36.5794762 C103.912081,36.866543 104.231536,36.97838 104.561234,37.0954767 C104.981453,37.260464 105.449839,37.4251744 105.449839,37.9732865 C105.449839,38.4306002 105.08803,38.8137249 104.422821,38.8137249 C104.013398,38.8137249 103.624737,38.643478 103.353449,38.4200808" id="Fill-41" fill="#FFFFFF" mask="url(#mask-2)"></path>
            <path d="M7.00741889,1.98862252 L21.7687964,1.98862252 L21.539309,4.3435666 C21.443251,4.82247259 21.2184697,5.2194386 20.8641346,5.53557192 C20.5095228,5.85142841 20.0840438,6.00949507 19.5863138,6.00949507 L10.6681431,6.00949507 C9.3889381,6.00949507 8.30184919,6.94433064 8.11056361,8.20941756 L7.55303953,11.8967169 L16.6973757,11.8967169 L16.1229653,16.0034049 L6.97862917,16.0034049 L5.37028015,26.8590688 L-0.000110729709,26.8590688 L3.07291551,5.40629498 C3.22599934,4.4108349 3.67113276,3.59254235 4.4083158,2.95086369 C5.14522201,2.30946185 6.01168198,1.98862252 7.00741889,1.98862252" id="Fill-42" fill="#FFFFFF" mask="url(#mask-2)"></path>
            <path d="M20.4571753,26.9384066 L23.9609401,2.06768353 C24.0758222,1.45534824 24.3529233,0.957618204 24.7936275,0.574493412 C25.2340549,0.191645443 25.750609,8.30472816e-05 26.3446739,8.30472816e-05 L29.0439874,8.30472816e-05 L25.5238899,24.8276215 C25.3519821,26.0384509 24.315552,26.9384066 23.0925424,26.9384066 L20.4571753,26.9384066 Z" id="Fill-43" fill="#FFFFFF" mask="url(#mask-2)"></path>
            <path d="M83.2718968,19.5609567 C81.9376038,21.2180268 80.3123685,22.0468387 78.3956372,22.0468387 C76.7698483,22.0468387 75.4433064,21.420939 74.4160115,20.168586 C73.3884398,18.9167866 72.8749308,17.3059462 72.8749308,15.3352342 C72.8749308,12.9974532 73.5495515,10.9902004 74.8993467,9.3145831 C76.2483114,7.63951943 77.8511239,6.80129554 79.7064002,6.80129554 C81.3169638,6.80129554 82.6429521,7.42747204 83.6860259,8.6792714 C84.7440483,9.9316244 85.2730595,11.5241944 85.2730595,13.4569815 C85.2730595,15.8512346 84.6061898,17.885893 83.2718968,19.5609567 M86.8479127,5.11903444 C84.9978961,3.07053482 82.6144392,2.04600819 79.6961577,2.04600819 C76.2998007,2.04600819 73.4853283,3.33850072 71.2527406,5.92320895 C69.0043738,8.48909312 67.8801905,11.7149264 67.8801905,15.6012623 C67.8801905,18.8567158 68.8368951,21.5463404 70.7503045,23.6712435 C72.6639907,25.7770457 75.0875872,26.8306389 78.0219245,26.8306389 C81.4022257,26.8306389 84.1768353,25.5475584 86.3457535,22.9822279 C88.514118,20.4359982 89.5987155,17.1334847 89.5987155,13.0741335 C89.5987155,9.81951057 88.6815967,7.1680877 86.8479127,5.11903444" id="Fill-44" fill="#FFFFFF" mask="url(#mask-2)"></path>
            <path d="M104.652447,14.8547503 C105.054673,15.3715812 105.360564,15.9844702 105.571504,16.6928635 C105.762789,17.4012568 105.791302,18.243633 105.657873,19.2199922 C105.466034,20.4645942 105.064085,21.5655243 104.451473,22.5225058 C103.838584,23.4803178 103.082577,24.2745266 102.182898,24.9062396 C101.263564,25.5382294 100.239315,26.0163049 99.1098716,26.3424039 C97.9610508,26.6676725 96.7643395,26.830722 95.5200144,26.830722 C94.6773613,26.830722 93.9116654,26.7634537 93.2223729,26.6294707 C92.5139796,26.4949341 91.8914018,26.3324383 91.3557469,26.1411527 C90.838916,25.9495903 90.4081774,25.7488927 90.0632543,25.5382294 C89.737709,25.3275662 89.5079449,25.1454158 89.3739619,24.992332 L89.7761876,24.0447625 C90.1017329,23.3172683 90.5991861,22.7719245 91.2696545,22.4079006 C91.9395693,22.0444303 92.6482394,21.977162 93.3948345,22.2069261 C93.5097165,22.2454047 93.6049441,22.2739176 93.6819012,22.2930185 C94.3520928,22.5036818 95.1468553,22.608875 96.065635,22.608875 C96.6588694,22.608875 97.2044901,22.5324715 97.7027738,22.378834 C98.200227,22.2454047 98.6403776,22.0444303 99.0235024,21.7759108 C99.3872495,21.5273226 99.6842819,21.2111892 99.9140461,20.8283413 C100.143533,20.4454933 100.296617,20.0147547 100.373574,19.5361256 C100.449701,19.0001938 100.363609,18.5403887 100.11502,18.1575407 C99.8658786,17.7550382 99.5215092,17.4012568 99.0810818,17.0948123 C98.6403776,16.8077455 98.1335123,16.5303676 97.559102,16.2618481 C96.9846916,15.9938822 96.3909036,15.7068154 95.7782914,15.4003709 C95.1654025,15.1133042 94.5815801,14.7783468 94.0268243,14.395222 C93.4709611,14.0320286 92.9829199,13.5816355 92.5618702,13.0454269 C92.1596446,12.5285959 91.8628889,11.9065718 91.6716034,11.178524 C91.4606633,10.4706843 91.4321504,9.61834238 91.585511,8.62260547 C91.7576957,7.56984276 92.1311317,6.65106301 92.705542,5.86571255 C93.2796756,5.00395859 93.968968,4.28615325 94.7734193,3.71174289 C95.5964179,3.13733252 96.5248865,2.70659395 97.559102,2.41925036 C98.6115879,2.13218359 99.6936939,1.98851179 100.804313,1.98851179 C101.378723,1.98851179 101.952857,2.03667922 102.527267,2.13218359 C103.082577,2.20914074 103.599408,2.32374599 104.078037,2.47682981 C104.556389,2.63046728 104.977992,2.7926863 105.34174,2.96514782 C105.475446,3.04182815 105.614688,3.11850847 105.75836,3.19491197 C105.902032,3.27159229 106.069234,3.37706234 106.260796,3.51076846 L105.571504,5.00395859 C104.882211,6.32524084 103.743079,6.71777765 102.154108,6.18156904 L102.125318,6.18156904 C101.53153,5.99056029 100.938019,5.85630052 100.344785,5.7796202 C99.7703743,5.7796202 99.2535434,5.85630052 98.7940151,6.00938434 C98.4108903,6.14336729 98.0853449,6.31582881 97.8176559,6.52621526 C97.5109346,6.7559794 97.2617927,7.03391097 97.070784,7.35917949 C96.8983224,7.66562396 96.7834404,8.00085816 96.7261377,8.36432842 C96.6494574,8.90053704 96.7355498,9.36006533 96.9846916,9.74263647 C97.2141789,10.1448621 97.559102,10.4895084 98.0183534,10.7765751 C98.4778817,11.0830196 98.9949895,11.3703632 99.5693998,11.6383291 C100.162634,11.9065718 100.765558,12.1839497 101.378723,12.4710165 C101.991059,12.777461 102.584847,13.1218304 103.159257,13.5049552 C103.733667,13.8689791 104.231121,14.3190953 104.652447,14.8547503" id="Fill-45" fill="#FFFFFF" mask="url(#mask-2)"></path>
            <path d="M41.9026132,14.3632211 C41.9787399,13.8081885 41.9236519,13.1604197 41.8857269,12.758194 C41.8284243,12.3371443 41.6941645,11.9927749 41.4835013,11.7242553 C41.254014,11.4565663 40.9381575,11.2555919 40.5359318,11.1213321 C40.1339829,10.987626 39.6262872,10.9203577 39.0139519,10.9203577 C38.1903997,10.9203577 37.4435278,11.0164157 36.7738899,11.2074244 C36.1034215,11.3796091 35.5002215,11.5808604 34.9645665,11.8103477 C34.6196435,11.9448843 34.2940981,11.9354723 33.9879305,11.7818348 C33.6817628,11.628751 33.4805116,11.3701971 33.3850072,11.00645 L32.9827815,9.05345477 C33.193168,8.88127007 33.5090245,8.69939652 33.9306278,8.50783413 C34.4280811,8.27806998 34.9930794,8.06768353 35.6250692,7.87612114 C36.2567822,7.66573469 36.9460746,7.5026852 37.6926697,7.38780312 C38.4395416,7.254097 39.1955487,7.1868287 39.9617983,7.1868287 C41.3207286,7.1868287 42.4692725,7.32108847 43.4077068,7.58877754 C44.3458642,7.85729709 45.0830473,8.26865796 45.6192559,8.82369062 C46.1742886,9.37927694 46.5283468,10.0973591 46.6817075,10.9776603 C46.854169,11.8391374 46.854169,12.8730761 46.6817075,14.0791994 L44.3959694,26.8590688 L41.9175617,26.8590688 C41.4386557,26.8590688 41.0458421,26.6821781 40.7399513,26.327843 C40.4335068,25.9735079 40.3186247,25.4710719 40.3953051,24.820258" id="Fill-46" fill="#FFFFFF" mask="url(#mask-2)"></path>
            <path d="M36.9164821,23.3662385 C36.1851124,23.3775883 35.9675285,23.3557192 35.2782361,23.3557192 C34.4549607,23.3557192 33.8420718,23.1544679 33.4403997,22.7522423 C33.0381741,22.3317462 32.8845366,21.7573358 32.9805946,21.029288 C33.0381741,20.5891374 33.1718802,20.2062894 33.3828203,19.8807441 C33.5934836,19.5549219 33.8896855,19.2678552 34.2730871,19.0189901 C34.6559351,18.789226 35.1348411,18.6167645 35.7092515,18.5021592 C36.283385,18.3870003 36.9726774,18.3294209 37.7765751,18.3294209 L38.6801296,18.3294209 L39.643478,18.3294209 L41.8685915,18.3294209 L42.2273558,15.2569483 L41.0060071,15.2569483 L39.643478,15.2569483 L38.380052,15.2569483 C36.8292825,15.2569483 35.4506976,15.3715535 34.2442974,15.6013177 C33.0381741,15.8310818 32.0136474,16.1856937 31.1712712,16.6640461 C30.309794,17.1617761 29.6299136,17.7840771 29.1324604,18.5306721 C28.6344535,19.2772672 28.309185,20.1583988 28.1561012,21.1729598 C28.0218414,22.1111173 28.0600432,22.9346695 28.2709833,23.642786 C28.5004706,24.3506256 28.8642177,24.9350017 29.3619477,25.39453 C29.8599546,25.8728823 30.4722899,26.2369062 31.2003377,26.4860481 C31.9469328,26.7155354 32.779897,26.8306943 33.6986768,26.8306943 C34.8281198,26.8306943 35.1472982,26.8304175 36.3620031,26.8306943 C37.3242443,26.8309711 37.6913133,26.8879969 38.135893,26.6394087 C38.5132045,26.4284686 38.6488484,26.2346916 38.777018,25.9985605 C39.1725999,25.2710663 39.3314971,23.3557192 39.3314971,23.3557192" id="Fill-47" fill="#FFFFFF" mask="url(#mask-2)"></path>
            <path d="M60.9909755,16.1017052 C60.9821172,16.1648212 60.9688296,16.2221238 60.9591407,16.2838556 C60.9727051,16.2135422 60.9840549,16.1501495 60.9909755,16.1017052" id="Fill-48" fill="#FFFFFF" mask="url(#mask-2)"></path>
            <path d="M65.4109733,7.72959805 L62.3933119,7.67561732 L62.0494962,10.1102868 C60.9181154,8.20075296 59.2771011,7.22660835 57.127007,7.18812978 C55.0416897,7.1507585 53.190289,7.88738789 51.570867,9.39829476 C49.9517218,10.908648 48.9374377,13.1179825 48.527461,16.0260215 C48.2002547,18.3458089 48.4615768,20.2940981 49.3114273,21.8706123 C50.3982394,23.8659617 52.1092902,24.884675 54.4454103,24.9267523 C56.5412468,24.9641236 58.3259329,24.2637582 60.0477799,22.2102757 C59.6876315,24.8234968 59.2455431,27.0906876 57.0157236,28.0543129 C55.476027,28.7197985 53.2412247,27.8818514 52.900454,26.6840328 L49.2433285,26.1666482 C48.4779094,26.0581331 47.8843982,26.8277046 48.1905658,27.537482 C48.9368841,29.2668032 50.7819178,31.8108183 55.0079172,31.9957369 C59.6151035,32.1969882 63.6066327,30.1800465 64.5035434,23.3217252 C64.5481121,22.9812313 64.6383568,22.3243273 64.7579449,21.4656184 C64.861754,20.7204075 64.2906655,20.0518769 63.5385339,20.0383125 L59.2934337,19.9621858 C59.2884509,19.9668918 59.2842985,19.9724283 59.2795925,19.9771343 C58.3807441,20.8399956 57.3692282,21.2613221 56.2450448,21.2413908 C55.197265,21.2225667 54.3759274,20.7793711 53.7821393,19.911527 C53.1872439,19.0442365 53.0200421,17.6897354 53.2797032,15.8491308 C53.5269073,14.0951722 54.0680988,12.7979736 54.9038312,11.9555974 C55.7387333,11.113498 56.707895,10.7018603 57.8107629,10.7215148 C58.9457424,10.7419998 59.8224449,11.1946075 60.4422545,12.0793378 C61.0615104,12.9640682 61.2444912,14.3041745 60.9909202,16.1015945 C60.9839996,16.1503156 60.9726498,16.2134315 60.9590854,16.2837449 C60.8954158,16.6840328 60.8156904,17.0635589 60.71548,17.416233 L60.6977633,17.4159562 C60.5718082,17.9200532 60.4422545,18.4103089 60.3857823,18.6090688 L63.6783302,18.6680323 C64.423818,18.6813199 65.0638357,18.1384675 65.1681984,17.4001772 C65.5576902,14.6474366 66.2915513,10.6127228 66.5177168,9.02568929 C66.6140516,8.3483003 66.0950061,7.74177832 65.4109733,7.72959805" id="Fill-49" fill="#FFFFFF" mask="url(#mask-2)"></path>
            <path d="M60.9590577,16.2838279 C60.9048001,16.5636973 60.8029288,16.9933285 60.6977356,17.4157624 L60.7154523,17.4160392 C60.8156627,17.0636419 60.8953881,16.6841158 60.9590577,16.2838279" id="Fill-50" fill="#FFFFFF" mask="url(#mask-2)"></path>
        </g>
    </g>
</svg>